<svg width="1304" height="431" viewBox="0 0 1304 431" fill="none" xmlns="http://www.w3.org/2000/svg">
<path d="M134 71L142.66 86H125.34L134 71Z" fill="#D9D9D9"/>
<path d="M209 172L217.66 187H200.34L209 172Z" fill="#D9D9D9"/>
<path d="M318 76L326.66 91H309.34L318 76Z" fill="#D9D9D9"/>
<path d="M538 10L546.66 25H529.34L538 10Z" fill="#D9D9D9"/>
<path d="M978 192L986.66 207H969.34L978 192Z" fill="#D9D9D9"/>
<path d="M1075 61L1083.66 76H1066.34L1075 61Z" fill="#D9D9D9"/>
<path d="M1139 212L1147.66 227H1130.34L1139 212Z" fill="#D9D9D9"/>
<path d="M1219 118L1227.66 133H1210.34L1219 118Z" fill="#D9D9D9"/>
<path d="M1294 0L1302.66 15H1285.34L1294 0Z" fill="#D9D9D9"/>
<path d="M1274 202L1282.66 217H1265.34L1274 202Z" fill="#D9D9D9"/>
<path d="M1229 290L1237.66 305H1220.34L1229 290Z" fill="#D9D9D9"/>
<path d="M1055 378L1063.66 393H1046.34L1055 378Z" fill="#D9D9D9"/>
<path d="M1189 411L1197.66 426H1180.34L1189 411Z" fill="#D9D9D9"/>
<path d="M229 10L237.66 25H220.34L229 10Z" fill="#D9D9D9"/>
<path d="M85 242L93.6603 257H76.3397L85 242Z" fill="#D9D9D9"/>
<path d="M298 304L306.66 319H289.34L298 304Z" fill="#D9D9D9"/>
<path d="M175 349L183.66 364H166.34L175 349Z" fill="#D9D9D9"/>
<path d="M10 20L18.6603 35H1.33975L10 20Z" fill="#D9D9D9"/>
</svg>
